<mxfile host="app.diagrams.net" modified="2024-01-26T15:02:14.503Z" agent="Mozilla/5.0 (Windows NT 10.0; Win64; x64) AppleWebKit/537.36 (KHTML, like Gecko) Chrome/120.0.0.0 Safari/537.36" etag="d0nYfsOdkblFnx5XFcy-" version="23.0.2" type="github">
  <diagram name="Page-1" id="hjasZw5lx7Q7KENLqYDq">
    <mxGraphModel dx="4037" dy="1644" grid="0" gridSize="10" guides="1" tooltips="1" connect="1" arrows="1" fold="1" page="1" pageScale="1" pageWidth="1169" pageHeight="827" math="0" shadow="0">
      <root>
        <mxCell id="0" />
        <mxCell id="1" parent="0" />
        <mxCell id="gpbE0uFMWpD5C5QdrG1w-2" value="" style="rounded=1;arcSize=10;dashed=0;fillColor=none;gradientColor=none;strokeWidth=2;fontSize=16;direction=east;" vertex="1" parent="1">
          <mxGeometry x="-1016" y="65" width="946" height="692" as="geometry" />
        </mxCell>
        <mxCell id="gpbE0uFMWpD5C5QdrG1w-22" value="File System" style="rounded=1;whiteSpace=wrap;html=1;fontSize=16;direction=east;" vertex="1" parent="1">
          <mxGeometry x="-803" y="562" width="521" height="119" as="geometry" />
        </mxCell>
        <mxCell id="gpbE0uFMWpD5C5QdrG1w-15" value="Subnet" style="sketch=0;outlineConnect=0;gradientColor=none;html=1;whiteSpace=wrap;fontSize=12;fontStyle=0;shape=mxgraph.aws4.group;grIcon=mxgraph.aws4.group_subnet;strokeColor=#879196;fillColor=none;verticalAlign=top;align=left;spacingLeft=30;fontColor=#879196;dashed=0;direction=east;" vertex="1" parent="1">
          <mxGeometry x="-870" y="185" width="643" height="261" as="geometry" />
        </mxCell>
        <mxCell id="gpbE0uFMWpD5C5QdrG1w-5" value="AWS Cloud" style="sketch=0;outlineConnect=0;fontColor=#232F3E;gradientColor=none;strokeColor=#232F3E;fillColor=#ffffff;dashed=0;verticalLabelPosition=bottom;verticalAlign=top;align=center;html=1;fontSize=12;fontStyle=0;aspect=fixed;shape=mxgraph.aws4.resourceIcon;resIcon=mxgraph.aws4.aws_cloud;direction=east;" vertex="1" parent="1">
          <mxGeometry x="-977" y="30" width="60" height="60" as="geometry" />
        </mxCell>
        <mxCell id="gpbE0uFMWpD5C5QdrG1w-8" value="" style="rounded=1;arcSize=10;dashed=0;fillColor=none;gradientColor=none;strokeWidth=2;fontSize=16;direction=east;" vertex="1" parent="1">
          <mxGeometry x="-921" y="140" width="745" height="360" as="geometry" />
        </mxCell>
        <mxCell id="gpbE0uFMWpD5C5QdrG1w-6" value="" style="outlineConnect=0;dashed=0;verticalLabelPosition=bottom;verticalAlign=top;align=center;html=1;shape=mxgraph.aws3.virtual_private_cloud;fillColor=#F58534;gradientColor=none;fontSize=16;direction=east;" vertex="1" parent="1">
          <mxGeometry x="-903" y="112" width="61" height="49" as="geometry" />
        </mxCell>
        <mxCell id="gpbE0uFMWpD5C5QdrG1w-18" value="" style="edgeStyle=none;curved=1;rounded=0;orthogonalLoop=1;jettySize=auto;html=1;fontSize=12;startSize=8;endSize=8;" edge="1" parent="1" source="gpbE0uFMWpD5C5QdrG1w-10" target="gpbE0uFMWpD5C5QdrG1w-16">
          <mxGeometry relative="1" as="geometry" />
        </mxCell>
        <mxCell id="gpbE0uFMWpD5C5QdrG1w-10" value="EC2 instance" style="outlineConnect=0;dashed=0;verticalLabelPosition=bottom;verticalAlign=top;align=center;html=1;shape=mxgraph.aws3.ec2;fillColor=#F58534;gradientColor=none;fontSize=16;direction=east;" vertex="1" parent="1">
          <mxGeometry x="-696" y="218" width="50" height="55" as="geometry" />
        </mxCell>
        <mxCell id="gpbE0uFMWpD5C5QdrG1w-19" value="" style="edgeStyle=none;curved=1;rounded=0;orthogonalLoop=1;jettySize=auto;html=1;fontSize=12;startSize=8;endSize=8;" edge="1" parent="1" source="gpbE0uFMWpD5C5QdrG1w-12" target="gpbE0uFMWpD5C5QdrG1w-16">
          <mxGeometry relative="1" as="geometry" />
        </mxCell>
        <mxCell id="gpbE0uFMWpD5C5QdrG1w-12" value="EC2 instance" style="outlineConnect=0;dashed=0;verticalLabelPosition=bottom;verticalAlign=top;align=center;html=1;shape=mxgraph.aws3.ec2;fillColor=#F58534;gradientColor=none;fontSize=16;direction=east;" vertex="1" parent="1">
          <mxGeometry x="-476" y="218" width="50" height="55" as="geometry" />
        </mxCell>
        <mxCell id="gpbE0uFMWpD5C5QdrG1w-23" value="" style="edgeStyle=none;curved=1;rounded=0;orthogonalLoop=1;jettySize=auto;html=1;fontSize=12;startSize=8;endSize=8;" edge="1" parent="1" source="gpbE0uFMWpD5C5QdrG1w-16">
          <mxGeometry relative="1" as="geometry">
            <mxPoint x="-551" y="566" as="targetPoint" />
          </mxGeometry>
        </mxCell>
        <mxCell id="gpbE0uFMWpD5C5QdrG1w-16" value="mount target" style="rounded=0;whiteSpace=wrap;html=1;fontSize=16;direction=east;" vertex="1" parent="1">
          <mxGeometry x="-725" y="343" width="347" height="60" as="geometry" />
        </mxCell>
        <mxCell id="gpbE0uFMWpD5C5QdrG1w-21" value="EFS" style="outlineConnect=0;dashed=0;verticalLabelPosition=bottom;verticalAlign=top;align=center;html=1;shape=mxgraph.aws3.efs;fillColor=#E05243;gradientColor=none;fontSize=16;direction=east;" vertex="1" parent="1">
          <mxGeometry x="-787" y="518" width="40" height="59" as="geometry" />
        </mxCell>
      </root>
    </mxGraphModel>
  </diagram>
</mxfile>
